<mxfile host="app.diagrams.net" modified="2022-11-03T21:19:44.106Z" agent="5.0 (Windows NT 10.0; Win64; x64) AppleWebKit/537.36 (KHTML, like Gecko) Chrome/106.0.0.0 Safari/537.36" etag="pGKJ0QQSp59Y4wyvXnDa" version="20.5.1" type="github" pages="8">
  <diagram id="Lr2wmshFiinjvm1OktC4" name="Página-1">
    <mxGraphModel dx="868" dy="450" grid="1" gridSize="10" guides="1" tooltips="1" connect="1" arrows="1" fold="1" page="1" pageScale="1" pageWidth="827" pageHeight="1169" math="0" shadow="0">
      <root>
        <mxCell id="0" />
        <mxCell id="1" parent="0" />
        <mxCell id="pXRGh61Z1YPhuc3SfvXc-7" value="Articulo" style="swimlane;" parent="1" vertex="1">
          <mxGeometry x="240" y="240" width="80" height="100" as="geometry" />
        </mxCell>
        <mxCell id="pXRGh61Z1YPhuc3SfvXc-8" value="Prorroga" style="swimlane;" parent="1" vertex="1">
          <mxGeometry x="440" y="240" width="80" height="100" as="geometry" />
        </mxCell>
        <mxCell id="pXRGh61Z1YPhuc3SfvXc-9" value="Cliente" style="swimlane;" parent="1" vertex="1">
          <mxGeometry x="80" y="240" width="80" height="100" as="geometry" />
        </mxCell>
        <mxCell id="pXRGh61Z1YPhuc3SfvXc-11" value="Ventas" style="swimlane;" parent="1" vertex="1">
          <mxGeometry x="400" y="90" width="80" height="100" as="geometry" />
        </mxCell>
        <mxCell id="pXRGh61Z1YPhuc3SfvXc-12" value="Informes" style="swimlane;" parent="1" vertex="1">
          <mxGeometry x="610" y="90" width="80" height="100" as="geometry" />
        </mxCell>
        <mxCell id="pXRGh61Z1YPhuc3SfvXc-26" value="" style="endArrow=ERmany;endFill=0;endSize=12;html=1;rounded=0;exitX=1;exitY=0.5;exitDx=0;exitDy=0;entryX=0;entryY=0.5;entryDx=0;entryDy=0;arcSize=20;" parent="1" source="pXRGh61Z1YPhuc3SfvXc-9" target="pXRGh61Z1YPhuc3SfvXc-7" edge="1">
          <mxGeometry width="160" relative="1" as="geometry">
            <mxPoint x="330" y="360" as="sourcePoint" />
            <mxPoint x="490" y="360" as="targetPoint" />
          </mxGeometry>
        </mxCell>
        <mxCell id="pXRGh61Z1YPhuc3SfvXc-29" value="" style="endArrow=ERmany;endFill=0;endSize=12;html=1;rounded=0;exitX=1;exitY=0.5;exitDx=0;exitDy=0;entryX=0;entryY=0.5;entryDx=0;entryDy=0;startArrow=diamond;startFill=1;targetPerimeterSpacing=0;" parent="1" source="pXRGh61Z1YPhuc3SfvXc-7" target="pXRGh61Z1YPhuc3SfvXc-8" edge="1">
          <mxGeometry width="160" relative="1" as="geometry">
            <mxPoint x="270" y="430" as="sourcePoint" />
            <mxPoint x="270" y="350" as="targetPoint" />
          </mxGeometry>
        </mxCell>
        <mxCell id="pXRGh61Z1YPhuc3SfvXc-30" value="" style="endArrow=ERmany;endFill=0;endSize=12;html=1;rounded=0;exitX=0;exitY=0.5;exitDx=0;exitDy=0;entryX=0.5;entryY=0;entryDx=0;entryDy=0;startArrow=ERmany;startFill=0;" parent="1" source="pXRGh61Z1YPhuc3SfvXc-11" target="pXRGh61Z1YPhuc3SfvXc-7" edge="1">
          <mxGeometry width="160" relative="1" as="geometry">
            <mxPoint x="334" y="370" as="sourcePoint" />
            <mxPoint x="414" y="370" as="targetPoint" />
            <Array as="points">
              <mxPoint x="280" y="140" />
            </Array>
          </mxGeometry>
        </mxCell>
        <mxCell id="pXRGh61Z1YPhuc3SfvXc-31" value="" style="endArrow=ERmany;endFill=0;endSize=12;html=1;rounded=0;" parent="1" edge="1">
          <mxGeometry width="160" relative="1" as="geometry">
            <mxPoint x="610" y="150" as="sourcePoint" />
            <mxPoint x="480" y="150" as="targetPoint" />
            <Array as="points">
              <mxPoint x="510" y="150" />
            </Array>
          </mxGeometry>
        </mxCell>
        <mxCell id="pXRGh61Z1YPhuc3SfvXc-32" value="" style="endArrow=ERmany;endFill=0;endSize=12;html=1;rounded=0;exitX=1;exitY=0.75;exitDx=0;exitDy=0;entryX=0;entryY=0.75;entryDx=0;entryDy=0;" parent="1" source="pXRGh61Z1YPhuc3SfvXc-9" target="pXRGh61Z1YPhuc3SfvXc-7" edge="1">
          <mxGeometry width="160" relative="1" as="geometry">
            <mxPoint x="170" y="300" as="sourcePoint" />
            <mxPoint x="250" y="300" as="targetPoint" />
          </mxGeometry>
        </mxCell>
        <mxCell id="pXRGh61Z1YPhuc3SfvXc-34" value="&lt;font style=&quot;font-size: 9px;&quot;&gt;Comprar&lt;/font&gt;" style="text;strokeColor=none;fillColor=none;html=1;fontSize=24;fontStyle=1;verticalAlign=middle;align=center;strokeWidth=0;" parent="1" vertex="1">
          <mxGeometry x="170" y="260" width="70" height="20" as="geometry" />
        </mxCell>
        <mxCell id="pXRGh61Z1YPhuc3SfvXc-35" value="&lt;font style=&quot;font-size: 9px;&quot;&gt;Empeñar&lt;/font&gt;" style="text;strokeColor=none;fillColor=none;html=1;fontSize=24;fontStyle=1;verticalAlign=middle;align=center;strokeWidth=0;" parent="1" vertex="1">
          <mxGeometry x="170" y="310" width="70" height="20" as="geometry" />
        </mxCell>
        <mxCell id="pXRGh61Z1YPhuc3SfvXc-37" value="&lt;font size=&quot;1&quot;&gt;Generar tiempos&lt;/font&gt;" style="text;strokeColor=none;fillColor=none;html=1;fontSize=24;fontStyle=1;verticalAlign=middle;align=center;strokeWidth=0;" parent="1" vertex="1">
          <mxGeometry x="343.5" y="260" width="70" height="20" as="geometry" />
        </mxCell>
        <mxCell id="pXRGh61Z1YPhuc3SfvXc-38" value="&lt;font style=&quot;font-size: 9px;&quot;&gt;Vender&lt;/font&gt;" style="text;strokeColor=none;fillColor=none;html=1;fontSize=24;fontStyle=1;verticalAlign=middle;align=center;strokeWidth=0;" parent="1" vertex="1">
          <mxGeometry x="290" y="110" width="70" height="20" as="geometry" />
        </mxCell>
        <mxCell id="pXRGh61Z1YPhuc3SfvXc-39" value="&lt;font style=&quot;font-size: 9px;&quot;&gt;Generar Informes&lt;/font&gt;" style="text;strokeColor=none;fillColor=none;html=1;fontSize=24;fontStyle=1;verticalAlign=middle;align=center;strokeWidth=0;" parent="1" vertex="1">
          <mxGeometry x="510" y="120" width="70" height="20" as="geometry" />
        </mxCell>
      </root>
    </mxGraphModel>
  </diagram>
  <diagram id="V_C4YBZ-KX4WxViAbprN" name="Página-2">
    <mxGraphModel dx="868" dy="450" grid="1" gridSize="10" guides="1" tooltips="1" connect="1" arrows="1" fold="1" page="1" pageScale="1" pageWidth="827" pageHeight="1169" math="0" shadow="0">
      <root>
        <mxCell id="0" />
        <mxCell id="1" parent="0" />
        <mxCell id="SBK62RC-VO5Yl6STB2E8-1" value="Articulos" style="swimlane;fontStyle=1;align=center;verticalAlign=top;childLayout=stackLayout;horizontal=1;startSize=26;horizontalStack=0;resizeParent=1;resizeParentMax=0;resizeLast=0;collapsible=1;marginBottom=0;" vertex="1" parent="1">
          <mxGeometry x="230" y="160" width="240" height="120" as="geometry" />
        </mxCell>
        <mxCell id="SBK62RC-VO5Yl6STB2E8-2" value="+NombreArticulo: string&#xa;+TipoArticulo: String" style="text;strokeColor=none;fillColor=none;align=left;verticalAlign=top;spacingLeft=4;spacingRight=4;overflow=hidden;rotatable=0;points=[[0,0.5],[1,0.5]];portConstraint=eastwest;" vertex="1" parent="SBK62RC-VO5Yl6STB2E8-1">
          <mxGeometry y="26" width="240" height="44" as="geometry" />
        </mxCell>
        <mxCell id="SBK62RC-VO5Yl6STB2E8-3" value="" style="line;strokeWidth=1;fillColor=none;align=left;verticalAlign=middle;spacingTop=-1;spacingLeft=3;spacingRight=3;rotatable=0;labelPosition=right;points=[];portConstraint=eastwest;strokeColor=inherit;" vertex="1" parent="SBK62RC-VO5Yl6STB2E8-1">
          <mxGeometry y="70" width="240" height="8" as="geometry" />
        </mxCell>
        <mxCell id="SBK62RC-VO5Yl6STB2E8-4" value="+definirNombreArticulo()&#xa;+definirTipoArticulo()" style="text;strokeColor=none;fillColor=none;align=left;verticalAlign=top;spacingLeft=4;spacingRight=4;overflow=hidden;rotatable=0;points=[[0,0.5],[1,0.5]];portConstraint=eastwest;" vertex="1" parent="SBK62RC-VO5Yl6STB2E8-1">
          <mxGeometry y="78" width="240" height="42" as="geometry" />
        </mxCell>
        <mxCell id="SBK62RC-VO5Yl6STB2E8-5" value="Inventarios" style="swimlane;fontStyle=1;align=center;verticalAlign=top;childLayout=stackLayout;horizontal=1;startSize=26;horizontalStack=0;resizeParent=1;resizeParentMax=0;resizeLast=0;collapsible=1;marginBottom=0;" vertex="1" parent="1">
          <mxGeometry x="540" y="335" width="130" height="100" as="geometry" />
        </mxCell>
        <mxCell id="SBK62RC-VO5Yl6STB2E8-6" value="+" style="text;strokeColor=none;fillColor=none;align=left;verticalAlign=top;spacingLeft=4;spacingRight=4;overflow=hidden;rotatable=0;points=[[0,0.5],[1,0.5]];portConstraint=eastwest;" vertex="1" parent="SBK62RC-VO5Yl6STB2E8-5">
          <mxGeometry y="26" width="130" height="26" as="geometry" />
        </mxCell>
        <mxCell id="SBK62RC-VO5Yl6STB2E8-7" value="" style="line;strokeWidth=1;fillColor=none;align=left;verticalAlign=middle;spacingTop=-1;spacingLeft=3;spacingRight=3;rotatable=0;labelPosition=right;points=[];portConstraint=eastwest;strokeColor=inherit;" vertex="1" parent="SBK62RC-VO5Yl6STB2E8-5">
          <mxGeometry y="52" width="130" height="8" as="geometry" />
        </mxCell>
        <mxCell id="SBK62RC-VO5Yl6STB2E8-8" value="+VerInventario()&#xa;+MidificarInventario()" style="text;strokeColor=none;fillColor=none;align=left;verticalAlign=top;spacingLeft=4;spacingRight=4;overflow=hidden;rotatable=0;points=[[0,0.5],[1,0.5]];portConstraint=eastwest;" vertex="1" parent="SBK62RC-VO5Yl6STB2E8-5">
          <mxGeometry y="60" width="130" height="40" as="geometry" />
        </mxCell>
        <mxCell id="SBK62RC-VO5Yl6STB2E8-9" value="Ventas" style="swimlane;fontStyle=1;align=center;verticalAlign=top;childLayout=stackLayout;horizontal=1;startSize=26;horizontalStack=0;resizeParent=1;resizeParentMax=0;resizeLast=0;collapsible=1;marginBottom=0;" vertex="1" parent="1">
          <mxGeometry x="540" y="160" width="130" height="130" as="geometry" />
        </mxCell>
        <mxCell id="SBK62RC-VO5Yl6STB2E8-10" value="+Fecha: date&#xa;+Hora:date" style="text;strokeColor=none;fillColor=none;align=left;verticalAlign=top;spacingLeft=4;spacingRight=4;overflow=hidden;rotatable=0;points=[[0,0.5],[1,0.5]];portConstraint=eastwest;" vertex="1" parent="SBK62RC-VO5Yl6STB2E8-9">
          <mxGeometry y="26" width="130" height="44" as="geometry" />
        </mxCell>
        <mxCell id="SBK62RC-VO5Yl6STB2E8-11" value="" style="line;strokeWidth=1;fillColor=none;align=left;verticalAlign=middle;spacingTop=-1;spacingLeft=3;spacingRight=3;rotatable=0;labelPosition=right;points=[];portConstraint=eastwest;strokeColor=inherit;" vertex="1" parent="SBK62RC-VO5Yl6STB2E8-9">
          <mxGeometry y="70" width="130" height="8" as="geometry" />
        </mxCell>
        <mxCell id="SBK62RC-VO5Yl6STB2E8-12" value="+GenerarFActura()&#xa;+MostrarFactura()&#xa;+ModificarFactura()" style="text;strokeColor=none;fillColor=none;align=left;verticalAlign=top;spacingLeft=4;spacingRight=4;overflow=hidden;rotatable=0;points=[[0,0.5],[1,0.5]];portConstraint=eastwest;" vertex="1" parent="SBK62RC-VO5Yl6STB2E8-9">
          <mxGeometry y="78" width="130" height="52" as="geometry" />
        </mxCell>
        <mxCell id="SBK62RC-VO5Yl6STB2E8-13" value="Logica" style="swimlane;fontStyle=1;align=center;verticalAlign=top;childLayout=stackLayout;horizontal=1;startSize=26;horizontalStack=0;resizeParent=1;resizeParentMax=0;resizeLast=0;collapsible=1;marginBottom=0;" vertex="1" parent="1">
          <mxGeometry x="40" y="160" width="130" height="100" as="geometry" />
        </mxCell>
        <mxCell id="SBK62RC-VO5Yl6STB2E8-14" value="+" style="text;strokeColor=none;fillColor=none;align=left;verticalAlign=top;spacingLeft=4;spacingRight=4;overflow=hidden;rotatable=0;points=[[0,0.5],[1,0.5]];portConstraint=eastwest;" vertex="1" parent="SBK62RC-VO5Yl6STB2E8-13">
          <mxGeometry y="26" width="130" height="26" as="geometry" />
        </mxCell>
        <mxCell id="SBK62RC-VO5Yl6STB2E8-15" value="" style="line;strokeWidth=1;fillColor=none;align=left;verticalAlign=middle;spacingTop=-1;spacingLeft=3;spacingRight=3;rotatable=0;labelPosition=right;points=[];portConstraint=eastwest;strokeColor=inherit;" vertex="1" parent="SBK62RC-VO5Yl6STB2E8-13">
          <mxGeometry y="52" width="130" height="8" as="geometry" />
        </mxCell>
        <mxCell id="SBK62RC-VO5Yl6STB2E8-16" value="+incluir()&#xa;+Eliminar()" style="text;strokeColor=none;fillColor=none;align=left;verticalAlign=top;spacingLeft=4;spacingRight=4;overflow=hidden;rotatable=0;points=[[0,0.5],[1,0.5]];portConstraint=eastwest;" vertex="1" parent="SBK62RC-VO5Yl6STB2E8-13">
          <mxGeometry y="60" width="130" height="40" as="geometry" />
        </mxCell>
        <mxCell id="SBK62RC-VO5Yl6STB2E8-17" value="Cliente" style="swimlane;fontStyle=1;align=center;verticalAlign=top;childLayout=stackLayout;horizontal=1;startSize=26;horizontalStack=0;resizeParent=1;resizeParentMax=0;resizeLast=0;collapsible=1;marginBottom=0;" vertex="1" parent="1">
          <mxGeometry x="230" y="300" width="240" height="170" as="geometry">
            <mxRectangle x="430" y="176" width="80" height="30" as="alternateBounds" />
          </mxGeometry>
        </mxCell>
        <mxCell id="SBK62RC-VO5Yl6STB2E8-18" value="+Nombre: String&#xa;+Numero de identificación: entero&#xa;+Correo electronico: String&#xa;+Codigo del Articulo: Entero&#xa;&#xa;" style="text;strokeColor=none;fillColor=none;align=left;verticalAlign=top;spacingLeft=4;spacingRight=4;overflow=hidden;rotatable=0;points=[[0,0.5],[1,0.5]];portConstraint=eastwest;" vertex="1" parent="SBK62RC-VO5Yl6STB2E8-17">
          <mxGeometry y="26" width="240" height="64" as="geometry" />
        </mxCell>
        <mxCell id="SBK62RC-VO5Yl6STB2E8-19" value="" style="line;strokeWidth=1;fillColor=none;align=left;verticalAlign=middle;spacingTop=-1;spacingLeft=3;spacingRight=3;rotatable=0;labelPosition=right;points=[];portConstraint=eastwest;strokeColor=inherit;" vertex="1" parent="SBK62RC-VO5Yl6STB2E8-17">
          <mxGeometry y="90" width="240" height="8" as="geometry" />
        </mxCell>
        <mxCell id="SBK62RC-VO5Yl6STB2E8-20" value="+definirNombre()&#xa;+definirID()&#xa;+definirEmail()&#xa;+definirCodigo()&#xa;&#xa;" style="text;strokeColor=none;fillColor=none;align=left;verticalAlign=top;spacingLeft=4;spacingRight=4;overflow=hidden;rotatable=0;points=[[0,0.5],[1,0.5]];portConstraint=eastwest;" vertex="1" parent="SBK62RC-VO5Yl6STB2E8-17">
          <mxGeometry y="98" width="240" height="72" as="geometry" />
        </mxCell>
        <mxCell id="SBK62RC-VO5Yl6STB2E8-21" value="" style="endArrow=block;endFill=0;endSize=12;html=1;rounded=0;" edge="1" parent="1">
          <mxGeometry width="160" relative="1" as="geometry">
            <mxPoint x="170" y="209.5" as="sourcePoint" />
            <mxPoint x="230" y="210" as="targetPoint" />
          </mxGeometry>
        </mxCell>
        <mxCell id="SBK62RC-VO5Yl6STB2E8-22" value="" style="endArrow=block;endFill=0;endSize=12;html=1;rounded=0;exitX=0.446;exitY=1;exitDx=0;exitDy=0;exitPerimeter=0;entryX=-0.008;entryY=1.063;entryDx=0;entryDy=0;entryPerimeter=0;" edge="1" parent="1" source="SBK62RC-VO5Yl6STB2E8-16" target="SBK62RC-VO5Yl6STB2E8-18">
          <mxGeometry width="160" relative="1" as="geometry">
            <mxPoint x="180" y="219.5" as="sourcePoint" />
            <mxPoint x="240" y="220" as="targetPoint" />
            <Array as="points">
              <mxPoint x="98" y="394" />
            </Array>
          </mxGeometry>
        </mxCell>
        <mxCell id="SBK62RC-VO5Yl6STB2E8-23" value="" style="endArrow=diamondThin;endFill=0;endSize=24;html=1;rounded=0;exitX=0.992;exitY=1;exitDx=0;exitDy=0;exitPerimeter=0;" edge="1" parent="1" source="SBK62RC-VO5Yl6STB2E8-2">
          <mxGeometry width="160" relative="1" as="geometry">
            <mxPoint x="330" y="240" as="sourcePoint" />
            <mxPoint x="540" y="230" as="targetPoint" />
          </mxGeometry>
        </mxCell>
        <mxCell id="SBK62RC-VO5Yl6STB2E8-24" value="" style="endArrow=diamondThin;endFill=0;endSize=24;html=1;rounded=0;exitX=1.013;exitY=0.167;exitDx=0;exitDy=0;exitPerimeter=0;" edge="1" parent="1" source="SBK62RC-VO5Yl6STB2E8-4">
          <mxGeometry width="160" relative="1" as="geometry">
            <mxPoint x="478.0799999999999" y="240" as="sourcePoint" />
            <mxPoint x="610" y="330" as="targetPoint" />
            <Array as="points">
              <mxPoint x="510" y="245" />
              <mxPoint x="510" y="300" />
              <mxPoint x="610" y="300" />
            </Array>
          </mxGeometry>
        </mxCell>
        <mxCell id="SBK62RC-VO5Yl6STB2E8-25" value="" style="endArrow=diamondThin;endFill=0;endSize=24;html=1;rounded=0;exitX=1;exitY=0.5;exitDx=0;exitDy=0;entryX=0;entryY=0.25;entryDx=0;entryDy=0;" edge="1" parent="1" source="SBK62RC-VO5Yl6STB2E8-18" target="SBK62RC-VO5Yl6STB2E8-5">
          <mxGeometry width="160" relative="1" as="geometry">
            <mxPoint x="478.0799999999999" y="240" as="sourcePoint" />
            <mxPoint x="550" y="240" as="targetPoint" />
          </mxGeometry>
        </mxCell>
        <mxCell id="SBK62RC-VO5Yl6STB2E8-26" value="" style="endArrow=none;html=1;edgeStyle=orthogonalEdgeStyle;rounded=0;exitX=1;exitY=0.5;exitDx=0;exitDy=0;entryX=1;entryY=0.5;entryDx=0;entryDy=0;" edge="1" parent="1" source="SBK62RC-VO5Yl6STB2E8-10" target="SBK62RC-VO5Yl6STB2E8-6">
          <mxGeometry relative="1" as="geometry">
            <mxPoint x="330" y="240" as="sourcePoint" />
            <mxPoint x="490" y="240" as="targetPoint" />
          </mxGeometry>
        </mxCell>
      </root>
    </mxGraphModel>
  </diagram>
  <diagram id="BvjXkbSl6iFIImhs-b5d" name="Página-4">
    <mxGraphModel dx="868" dy="450" grid="1" gridSize="10" guides="1" tooltips="1" connect="1" arrows="1" fold="1" page="1" pageScale="1" pageWidth="827" pageHeight="1169" math="0" shadow="0">
      <root>
        <mxCell id="0" />
        <mxCell id="1" parent="0" />
        <mxCell id="VYWn9tMZDJEAF2R3FNtN-1" value="Alternativa" style="shape=umlFrame;whiteSpace=wrap;html=1;" vertex="1" parent="1">
          <mxGeometry x="30" y="290" width="580" height="180" as="geometry" />
        </mxCell>
        <mxCell id="VYWn9tMZDJEAF2R3FNtN-2" value="Articulo" style="html=1;" vertex="1" parent="1">
          <mxGeometry x="260" y="25" width="100" height="30" as="geometry" />
        </mxCell>
        <mxCell id="VYWn9tMZDJEAF2R3FNtN-3" value="" style="html=1;points=[];perimeter=orthogonalPerimeter;" vertex="1" parent="1">
          <mxGeometry x="305" y="100" width="10" height="400" as="geometry" />
        </mxCell>
        <mxCell id="VYWn9tMZDJEAF2R3FNtN-4" value="" style="endArrow=block;endFill=1;endSize=12;html=1;rounded=0;" edge="1" parent="1" source="VYWn9tMZDJEAF2R3FNtN-5">
          <mxGeometry width="160" relative="1" as="geometry">
            <mxPoint x="145" y="130" as="sourcePoint" />
            <mxPoint x="305" y="130" as="targetPoint" />
          </mxGeometry>
        </mxCell>
        <mxCell id="VYWn9tMZDJEAF2R3FNtN-5" value="" style="html=1;points=[];perimeter=orthogonalPerimeter;" vertex="1" parent="1">
          <mxGeometry x="110" y="100" width="10" height="400" as="geometry" />
        </mxCell>
        <mxCell id="VYWn9tMZDJEAF2R3FNtN-6" value="1- Seleccionar tipo de articulo" style="text;html=1;strokeColor=none;fillColor=none;align=center;verticalAlign=middle;whiteSpace=wrap;rounded=0;" vertex="1" parent="1">
          <mxGeometry x="150" y="80" width="110" height="50" as="geometry" />
        </mxCell>
        <mxCell id="VYWn9tMZDJEAF2R3FNtN-7" value="Inventarios" style="html=1;" vertex="1" parent="1">
          <mxGeometry x="460" y="25" width="100" height="30" as="geometry" />
        </mxCell>
        <mxCell id="VYWn9tMZDJEAF2R3FNtN-8" value="" style="endArrow=block;endFill=1;endSize=12;html=1;rounded=0;" edge="1" parent="1">
          <mxGeometry width="160" relative="1" as="geometry">
            <mxPoint x="320" y="270" as="sourcePoint" />
            <mxPoint x="505" y="270" as="targetPoint" />
          </mxGeometry>
        </mxCell>
        <mxCell id="VYWn9tMZDJEAF2R3FNtN-9" value="4- Validar articulo" style="text;html=1;strokeColor=none;fillColor=none;align=center;verticalAlign=middle;whiteSpace=wrap;rounded=0;" vertex="1" parent="1">
          <mxGeometry x="375" y="220" width="70" height="50" as="geometry" />
        </mxCell>
        <mxCell id="VYWn9tMZDJEAF2R3FNtN-10" value="" style="html=1;points=[];perimeter=orthogonalPerimeter;" vertex="1" parent="1">
          <mxGeometry x="505" y="90" width="10" height="410" as="geometry" />
        </mxCell>
        <mxCell id="VYWn9tMZDJEAF2R3FNtN-11" value="" style="endArrow=block;endFill=1;endSize=12;html=1;rounded=0;exitX=1;exitY=0.03;exitDx=0;exitDy=0;exitPerimeter=0;" edge="1" parent="1">
          <mxGeometry width="160" relative="1" as="geometry">
            <mxPoint x="120" y="179.89999999999998" as="sourcePoint" />
            <mxPoint x="305" y="180" as="targetPoint" />
          </mxGeometry>
        </mxCell>
        <mxCell id="VYWn9tMZDJEAF2R3FNtN-12" value="2- Seleccionar referencia" style="text;html=1;strokeColor=none;fillColor=none;align=center;verticalAlign=middle;whiteSpace=wrap;rounded=0;" vertex="1" parent="1">
          <mxGeometry x="150" y="130" width="110" height="50" as="geometry" />
        </mxCell>
        <mxCell id="VYWn9tMZDJEAF2R3FNtN-13" value="" style="endArrow=block;endFill=1;endSize=12;html=1;rounded=0;exitX=1;exitY=0.03;exitDx=0;exitDy=0;exitPerimeter=0;" edge="1" parent="1">
          <mxGeometry width="160" relative="1" as="geometry">
            <mxPoint x="120" y="239.89999999999998" as="sourcePoint" />
            <mxPoint x="305" y="240" as="targetPoint" />
          </mxGeometry>
        </mxCell>
        <mxCell id="VYWn9tMZDJEAF2R3FNtN-14" value="3- Ingresar serial" style="text;html=1;strokeColor=none;fillColor=none;align=center;verticalAlign=middle;whiteSpace=wrap;rounded=0;" vertex="1" parent="1">
          <mxGeometry x="150" y="190" width="110" height="50" as="geometry" />
        </mxCell>
        <mxCell id="VYWn9tMZDJEAF2R3FNtN-15" value="" style="endArrow=none;dashed=1;endFill=0;endSize=12;html=1;rounded=0;startArrow=block;startFill=0;" edge="1" parent="1">
          <mxGeometry width="160" relative="1" as="geometry">
            <mxPoint x="315" y="344.5" as="sourcePoint" />
            <mxPoint x="500" y="345" as="targetPoint" />
          </mxGeometry>
        </mxCell>
        <mxCell id="VYWn9tMZDJEAF2R3FNtN-16" value="5- Articulo ya existe" style="text;html=1;strokeColor=none;fillColor=none;align=center;verticalAlign=middle;whiteSpace=wrap;rounded=0;" vertex="1" parent="1">
          <mxGeometry x="375" y="290" width="70" height="50" as="geometry" />
        </mxCell>
        <mxCell id="VYWn9tMZDJEAF2R3FNtN-17" value="" style="endArrow=block;endFill=1;endSize=12;html=1;rounded=0;" edge="1" parent="1">
          <mxGeometry width="160" relative="1" as="geometry">
            <mxPoint x="120" y="390" as="sourcePoint" />
            <mxPoint x="305" y="390" as="targetPoint" />
          </mxGeometry>
        </mxCell>
        <mxCell id="VYWn9tMZDJEAF2R3FNtN-18" value="6- Corregir articulo" style="text;html=1;strokeColor=none;fillColor=none;align=center;verticalAlign=middle;whiteSpace=wrap;rounded=0;" vertex="1" parent="1">
          <mxGeometry x="175" y="340" width="70" height="50" as="geometry" />
        </mxCell>
        <mxCell id="VYWn9tMZDJEAF2R3FNtN-19" value="" style="endArrow=none;dashed=1;endFill=0;endSize=12;html=1;rounded=0;startArrow=block;startFill=0;" edge="1" parent="1">
          <mxGeometry width="160" relative="1" as="geometry">
            <mxPoint x="315" y="444.5" as="sourcePoint" />
            <mxPoint x="500" y="445" as="targetPoint" />
          </mxGeometry>
        </mxCell>
        <mxCell id="VYWn9tMZDJEAF2R3FNtN-20" value="7- Articulo Creado" style="text;html=1;strokeColor=none;fillColor=none;align=center;verticalAlign=middle;whiteSpace=wrap;rounded=0;" vertex="1" parent="1">
          <mxGeometry x="375" y="400" width="70" height="50" as="geometry" />
        </mxCell>
        <mxCell id="VYWn9tMZDJEAF2R3FNtN-21" value="" style="line;strokeWidth=1;fillColor=none;align=left;verticalAlign=middle;spacingTop=-1;spacingLeft=3;spacingRight=3;rotatable=0;labelPosition=right;points=[];portConstraint=eastwest;strokeColor=inherit;dashed=1;" vertex="1" parent="1">
          <mxGeometry x="30" y="400" width="580" height="8" as="geometry" />
        </mxCell>
        <mxCell id="VYWn9tMZDJEAF2R3FNtN-22" value="" style="endArrow=none;dashed=1;endFill=0;endSize=12;html=1;rounded=0;exitX=0.5;exitY=1;exitDx=0;exitDy=0;entryX=0.6;entryY=0.002;entryDx=0;entryDy=0;entryPerimeter=0;" edge="1" parent="1" source="VYWn9tMZDJEAF2R3FNtN-7" target="VYWn9tMZDJEAF2R3FNtN-10">
          <mxGeometry width="160" relative="1" as="geometry">
            <mxPoint x="550" y="150" as="sourcePoint" />
            <mxPoint x="650" y="220" as="targetPoint" />
          </mxGeometry>
        </mxCell>
        <mxCell id="VYWn9tMZDJEAF2R3FNtN-23" value="" style="endArrow=none;dashed=1;endFill=0;endSize=12;html=1;rounded=0;exitX=0.5;exitY=1;exitDx=0;exitDy=0;entryX=0.4;entryY=-0.005;entryDx=0;entryDy=0;entryPerimeter=0;" edge="1" parent="1" source="VYWn9tMZDJEAF2R3FNtN-2" target="VYWn9tMZDJEAF2R3FNtN-3">
          <mxGeometry width="160" relative="1" as="geometry">
            <mxPoint x="520" y="65" as="sourcePoint" />
            <mxPoint x="521" y="100.82000000000005" as="targetPoint" />
          </mxGeometry>
        </mxCell>
        <mxCell id="_0qDRU-yWzg0XDNF3eQ_-1" value="Actor" style="shape=umlActor;verticalLabelPosition=bottom;verticalAlign=top;html=1;" vertex="1" parent="1">
          <mxGeometry x="100" y="10" width="30" height="60" as="geometry" />
        </mxCell>
      </root>
    </mxGraphModel>
  </diagram>
  <diagram id="NcXxfGmlBv5pzRnn8lgC" name="Página-3">
    <mxGraphModel dx="868" dy="450" grid="1" gridSize="10" guides="1" tooltips="1" connect="1" arrows="1" fold="1" page="1" pageScale="1" pageWidth="827" pageHeight="1169" math="0" shadow="0">
      <root>
        <mxCell id="0" />
        <mxCell id="1" parent="0" />
        <mxCell id="1gqIUYMVC1nUzYFrIXfp-10" value="Alternativa" style="shape=umlFrame;whiteSpace=wrap;html=1;" vertex="1" parent="1">
          <mxGeometry x="30" y="170" width="580" height="180" as="geometry" />
        </mxCell>
        <mxCell id="7Gc3S45B-VhUFCxAcgvk-1" value="Actor" style="shape=umlActor;verticalLabelPosition=bottom;verticalAlign=top;html=1;" vertex="1" parent="1">
          <mxGeometry x="100" y="10" width="30" height="60" as="geometry" />
        </mxCell>
        <mxCell id="1gqIUYMVC1nUzYFrIXfp-1" value="Articulo" style="html=1;" vertex="1" parent="1">
          <mxGeometry x="260" y="25" width="100" height="30" as="geometry" />
        </mxCell>
        <mxCell id="1gqIUYMVC1nUzYFrIXfp-2" value="" style="html=1;points=[];perimeter=orthogonalPerimeter;" vertex="1" parent="1">
          <mxGeometry x="305" y="100" width="10" height="260" as="geometry" />
        </mxCell>
        <mxCell id="1gqIUYMVC1nUzYFrIXfp-3" value="" style="endArrow=none;endFill=0;endSize=12;html=1;rounded=0;startArrow=block;startFill=1;" edge="1" parent="1" source="1gqIUYMVC1nUzYFrIXfp-5">
          <mxGeometry width="160" relative="1" as="geometry">
            <mxPoint x="145" y="130" as="sourcePoint" />
            <mxPoint x="305" y="130" as="targetPoint" />
          </mxGeometry>
        </mxCell>
        <mxCell id="1gqIUYMVC1nUzYFrIXfp-5" value="" style="html=1;points=[];perimeter=orthogonalPerimeter;" vertex="1" parent="1">
          <mxGeometry x="110" y="100" width="10" height="260" as="geometry" />
        </mxCell>
        <mxCell id="1gqIUYMVC1nUzYFrIXfp-6" value="1- El articulo va a entrar en amnistia" style="text;html=1;strokeColor=none;fillColor=none;align=center;verticalAlign=middle;whiteSpace=wrap;rounded=0;" vertex="1" parent="1">
          <mxGeometry x="150" y="80" width="110" height="50" as="geometry" />
        </mxCell>
        <mxCell id="1gqIUYMVC1nUzYFrIXfp-7" value="Inventarios" style="html=1;" vertex="1" parent="1">
          <mxGeometry x="460" y="25" width="100" height="30" as="geometry" />
        </mxCell>
        <mxCell id="1gqIUYMVC1nUzYFrIXfp-8" value="" style="endArrow=block;endFill=1;endSize=12;html=1;rounded=0;" edge="1" parent="1">
          <mxGeometry width="160" relative="1" as="geometry">
            <mxPoint x="120" y="220" as="sourcePoint" />
            <mxPoint x="305" y="220" as="targetPoint" />
          </mxGeometry>
        </mxCell>
        <mxCell id="1gqIUYMVC1nUzYFrIXfp-9" value="2- NO" style="text;html=1;strokeColor=none;fillColor=none;align=center;verticalAlign=middle;whiteSpace=wrap;rounded=0;" vertex="1" parent="1">
          <mxGeometry x="177.5" y="170" width="70" height="50" as="geometry" />
        </mxCell>
        <mxCell id="1gqIUYMVC1nUzYFrIXfp-11" value="" style="html=1;points=[];perimeter=orthogonalPerimeter;" vertex="1" parent="1">
          <mxGeometry x="505" y="90" width="10" height="270" as="geometry" />
        </mxCell>
        <mxCell id="1gqIUYMVC1nUzYFrIXfp-20" value="" style="endArrow=block;dashed=1;endFill=0;endSize=12;html=1;rounded=0;startArrow=none;startFill=0;" edge="1" parent="1">
          <mxGeometry width="160" relative="1" as="geometry">
            <mxPoint x="320" y="334.5" as="sourcePoint" />
            <mxPoint x="505" y="335" as="targetPoint" />
          </mxGeometry>
        </mxCell>
        <mxCell id="1gqIUYMVC1nUzYFrIXfp-21" value="5- Articulo en amnistia" style="text;html=1;strokeColor=none;fillColor=none;align=center;verticalAlign=middle;whiteSpace=wrap;rounded=0;" vertex="1" parent="1">
          <mxGeometry x="380" y="290" width="70" height="50" as="geometry" />
        </mxCell>
        <mxCell id="1gqIUYMVC1nUzYFrIXfp-22" value="" style="line;strokeWidth=1;fillColor=none;align=left;verticalAlign=middle;spacingTop=-1;spacingLeft=3;spacingRight=3;rotatable=0;labelPosition=right;points=[];portConstraint=eastwest;strokeColor=inherit;dashed=1;" vertex="1" parent="1">
          <mxGeometry x="30" y="260" width="580" height="8" as="geometry" />
        </mxCell>
        <mxCell id="1gqIUYMVC1nUzYFrIXfp-25" value="" style="endArrow=none;dashed=1;endFill=0;endSize=12;html=1;rounded=0;exitX=0.5;exitY=1;exitDx=0;exitDy=0;entryX=0.6;entryY=0.002;entryDx=0;entryDy=0;entryPerimeter=0;" edge="1" parent="1" source="1gqIUYMVC1nUzYFrIXfp-7" target="1gqIUYMVC1nUzYFrIXfp-11">
          <mxGeometry width="160" relative="1" as="geometry">
            <mxPoint x="550" y="150" as="sourcePoint" />
            <mxPoint x="650" y="220" as="targetPoint" />
          </mxGeometry>
        </mxCell>
        <mxCell id="1gqIUYMVC1nUzYFrIXfp-26" value="" style="endArrow=none;dashed=1;endFill=0;endSize=12;html=1;rounded=0;exitX=0.5;exitY=1;exitDx=0;exitDy=0;entryX=0.4;entryY=-0.005;entryDx=0;entryDy=0;entryPerimeter=0;" edge="1" parent="1" source="1gqIUYMVC1nUzYFrIXfp-1" target="1gqIUYMVC1nUzYFrIXfp-2">
          <mxGeometry width="160" relative="1" as="geometry">
            <mxPoint x="520" y="65" as="sourcePoint" />
            <mxPoint x="521" y="100.82000000000005" as="targetPoint" />
          </mxGeometry>
        </mxCell>
        <mxCell id="j7ASIDK8bQwhcWuJyGFo-1" value="" style="endArrow=block;endFill=1;endSize=12;html=1;rounded=0;" edge="1" parent="1">
          <mxGeometry width="160" relative="1" as="geometry">
            <mxPoint x="120" y="310" as="sourcePoint" />
            <mxPoint x="305" y="310" as="targetPoint" />
          </mxGeometry>
        </mxCell>
        <mxCell id="j7ASIDK8bQwhcWuJyGFo-2" value="4- SI" style="text;html=1;strokeColor=none;fillColor=none;align=center;verticalAlign=middle;whiteSpace=wrap;rounded=0;" vertex="1" parent="1">
          <mxGeometry x="177.5" y="260" width="70" height="50" as="geometry" />
        </mxCell>
      </root>
    </mxGraphModel>
  </diagram>
  <diagram id="tYm5KuVp52zHsUDf5TfQ" name="Página-5">
    <mxGraphModel dx="868" dy="450" grid="1" gridSize="10" guides="1" tooltips="1" connect="1" arrows="1" fold="1" page="1" pageScale="1" pageWidth="827" pageHeight="1169" math="0" shadow="0">
      <root>
        <mxCell id="0" />
        <mxCell id="1" parent="0" />
        <mxCell id="ffrSz9LYrHrioLqBihOs-29" value="Alternativa" style="shape=umlFrame;whiteSpace=wrap;html=1;" vertex="1" parent="1">
          <mxGeometry x="30" y="640" width="580" height="180" as="geometry" />
        </mxCell>
        <mxCell id="ffrSz9LYrHrioLqBihOs-1" value="Alternativa" style="shape=umlFrame;whiteSpace=wrap;html=1;" vertex="1" parent="1">
          <mxGeometry x="30" y="390" width="580" height="180" as="geometry" />
        </mxCell>
        <mxCell id="ffrSz9LYrHrioLqBihOs-2" value="Cliente" style="html=1;" vertex="1" parent="1">
          <mxGeometry x="260" y="25" width="100" height="30" as="geometry" />
        </mxCell>
        <mxCell id="ffrSz9LYrHrioLqBihOs-3" value="" style="html=1;points=[];perimeter=orthogonalPerimeter;" vertex="1" parent="1">
          <mxGeometry x="305" y="100" width="10" height="780" as="geometry" />
        </mxCell>
        <mxCell id="ffrSz9LYrHrioLqBihOs-4" value="" style="endArrow=block;endFill=1;endSize=12;html=1;rounded=0;" edge="1" parent="1" source="ffrSz9LYrHrioLqBihOs-5">
          <mxGeometry width="160" relative="1" as="geometry">
            <mxPoint x="145" y="130" as="sourcePoint" />
            <mxPoint x="305" y="130" as="targetPoint" />
          </mxGeometry>
        </mxCell>
        <mxCell id="ffrSz9LYrHrioLqBihOs-5" value="" style="html=1;points=[];perimeter=orthogonalPerimeter;" vertex="1" parent="1">
          <mxGeometry x="110" y="100" width="10" height="780" as="geometry" />
        </mxCell>
        <mxCell id="ffrSz9LYrHrioLqBihOs-6" value="1- Ingresar Nombre" style="text;html=1;strokeColor=none;fillColor=none;align=center;verticalAlign=middle;whiteSpace=wrap;rounded=0;" vertex="1" parent="1">
          <mxGeometry x="150" y="80" width="110" height="50" as="geometry" />
        </mxCell>
        <mxCell id="ffrSz9LYrHrioLqBihOs-7" value="BD" style="html=1;" vertex="1" parent="1">
          <mxGeometry x="460" y="25" width="100" height="30" as="geometry" />
        </mxCell>
        <mxCell id="ffrSz9LYrHrioLqBihOs-8" value="" style="endArrow=block;endFill=1;endSize=12;html=1;rounded=0;" edge="1" parent="1">
          <mxGeometry width="160" relative="1" as="geometry">
            <mxPoint x="317.5" y="370" as="sourcePoint" />
            <mxPoint x="502.5" y="370" as="targetPoint" />
          </mxGeometry>
        </mxCell>
        <mxCell id="ffrSz9LYrHrioLqBihOs-9" value="6- Validar cliente" style="text;html=1;strokeColor=none;fillColor=none;align=center;verticalAlign=middle;whiteSpace=wrap;rounded=0;" vertex="1" parent="1">
          <mxGeometry x="372.5" y="320" width="70" height="50" as="geometry" />
        </mxCell>
        <mxCell id="ffrSz9LYrHrioLqBihOs-10" value="" style="html=1;points=[];perimeter=orthogonalPerimeter;" vertex="1" parent="1">
          <mxGeometry x="505" y="90" width="10" height="790" as="geometry" />
        </mxCell>
        <mxCell id="ffrSz9LYrHrioLqBihOs-11" value="" style="endArrow=block;endFill=1;endSize=12;html=1;rounded=0;exitX=1;exitY=0.03;exitDx=0;exitDy=0;exitPerimeter=0;" edge="1" parent="1">
          <mxGeometry width="160" relative="1" as="geometry">
            <mxPoint x="120" y="179.89999999999998" as="sourcePoint" />
            <mxPoint x="305" y="180" as="targetPoint" />
          </mxGeometry>
        </mxCell>
        <mxCell id="ffrSz9LYrHrioLqBihOs-12" value="2- Ingresar ID" style="text;html=1;strokeColor=none;fillColor=none;align=center;verticalAlign=middle;whiteSpace=wrap;rounded=0;" vertex="1" parent="1">
          <mxGeometry x="150" y="130" width="110" height="50" as="geometry" />
        </mxCell>
        <mxCell id="ffrSz9LYrHrioLqBihOs-13" value="" style="endArrow=block;endFill=1;endSize=12;html=1;rounded=0;exitX=1;exitY=0.03;exitDx=0;exitDy=0;exitPerimeter=0;" edge="1" parent="1">
          <mxGeometry width="160" relative="1" as="geometry">
            <mxPoint x="120" y="239.99999999999997" as="sourcePoint" />
            <mxPoint x="305" y="240.1" as="targetPoint" />
          </mxGeometry>
        </mxCell>
        <mxCell id="ffrSz9LYrHrioLqBihOs-14" value="3- Ingresar telefono" style="text;html=1;strokeColor=none;fillColor=none;align=center;verticalAlign=middle;whiteSpace=wrap;rounded=0;" vertex="1" parent="1">
          <mxGeometry x="150" y="190" width="110" height="50" as="geometry" />
        </mxCell>
        <mxCell id="ffrSz9LYrHrioLqBihOs-15" value="" style="endArrow=none;dashed=1;endFill=0;endSize=12;html=1;rounded=0;startArrow=block;startFill=0;" edge="1" parent="1">
          <mxGeometry width="160" relative="1" as="geometry">
            <mxPoint x="315" y="444.5" as="sourcePoint" />
            <mxPoint x="500" y="445" as="targetPoint" />
          </mxGeometry>
        </mxCell>
        <mxCell id="ffrSz9LYrHrioLqBihOs-16" value="7- Cliente ya existe" style="text;html=1;strokeColor=none;fillColor=none;align=center;verticalAlign=middle;whiteSpace=wrap;rounded=0;" vertex="1" parent="1">
          <mxGeometry x="375" y="390" width="70" height="50" as="geometry" />
        </mxCell>
        <mxCell id="ffrSz9LYrHrioLqBihOs-17" value="" style="endArrow=block;endFill=1;endSize=12;html=1;rounded=0;" edge="1" parent="1">
          <mxGeometry width="160" relative="1" as="geometry">
            <mxPoint x="120" y="474.5" as="sourcePoint" />
            <mxPoint x="305" y="474.5" as="targetPoint" />
          </mxGeometry>
        </mxCell>
        <mxCell id="ffrSz9LYrHrioLqBihOs-18" value="8- Corregir cliente" style="text;html=1;strokeColor=none;fillColor=none;align=center;verticalAlign=middle;whiteSpace=wrap;rounded=0;" vertex="1" parent="1">
          <mxGeometry x="175" y="424.5" width="70" height="50" as="geometry" />
        </mxCell>
        <mxCell id="ffrSz9LYrHrioLqBihOs-19" value="" style="endArrow=none;dashed=1;endFill=0;endSize=12;html=1;rounded=0;startArrow=block;startFill=0;" edge="1" parent="1">
          <mxGeometry width="160" relative="1" as="geometry">
            <mxPoint x="315" y="544.5" as="sourcePoint" />
            <mxPoint x="500" y="545" as="targetPoint" />
          </mxGeometry>
        </mxCell>
        <mxCell id="ffrSz9LYrHrioLqBihOs-20" value="9- Cliente Creado" style="text;html=1;strokeColor=none;fillColor=none;align=center;verticalAlign=middle;whiteSpace=wrap;rounded=0;" vertex="1" parent="1">
          <mxGeometry x="375" y="500" width="70" height="50" as="geometry" />
        </mxCell>
        <mxCell id="ffrSz9LYrHrioLqBihOs-21" value="" style="line;strokeWidth=1;fillColor=none;align=left;verticalAlign=middle;spacingTop=-1;spacingLeft=3;spacingRight=3;rotatable=0;labelPosition=right;points=[];portConstraint=eastwest;strokeColor=inherit;dashed=1;" vertex="1" parent="1">
          <mxGeometry x="30" y="492" width="580" height="8" as="geometry" />
        </mxCell>
        <mxCell id="ffrSz9LYrHrioLqBihOs-22" value="" style="endArrow=none;dashed=1;endFill=0;endSize=12;html=1;rounded=0;exitX=0.5;exitY=1;exitDx=0;exitDy=0;entryX=0.6;entryY=0.002;entryDx=0;entryDy=0;entryPerimeter=0;" edge="1" parent="1" source="ffrSz9LYrHrioLqBihOs-7" target="ffrSz9LYrHrioLqBihOs-10">
          <mxGeometry width="160" relative="1" as="geometry">
            <mxPoint x="550" y="150" as="sourcePoint" />
            <mxPoint x="650" y="220" as="targetPoint" />
          </mxGeometry>
        </mxCell>
        <mxCell id="ffrSz9LYrHrioLqBihOs-23" value="" style="endArrow=none;dashed=1;endFill=0;endSize=12;html=1;rounded=0;exitX=0.5;exitY=1;exitDx=0;exitDy=0;entryX=0.4;entryY=-0.005;entryDx=0;entryDy=0;entryPerimeter=0;" edge="1" parent="1" source="ffrSz9LYrHrioLqBihOs-2" target="ffrSz9LYrHrioLqBihOs-3">
          <mxGeometry width="160" relative="1" as="geometry">
            <mxPoint x="520" y="65" as="sourcePoint" />
            <mxPoint x="521" y="100.82000000000005" as="targetPoint" />
          </mxGeometry>
        </mxCell>
        <mxCell id="ffrSz9LYrHrioLqBihOs-24" value="Actor" style="shape=umlActor;verticalLabelPosition=bottom;verticalAlign=top;html=1;" vertex="1" parent="1">
          <mxGeometry x="100" y="10" width="30" height="60" as="geometry" />
        </mxCell>
        <mxCell id="ffrSz9LYrHrioLqBihOs-25" value="" style="endArrow=block;endFill=1;endSize=12;html=1;rounded=0;exitX=1;exitY=0.03;exitDx=0;exitDy=0;exitPerimeter=0;" edge="1" parent="1">
          <mxGeometry width="160" relative="1" as="geometry">
            <mxPoint x="120" y="290" as="sourcePoint" />
            <mxPoint x="305" y="290.1" as="targetPoint" />
          </mxGeometry>
        </mxCell>
        <mxCell id="ffrSz9LYrHrioLqBihOs-26" value="4- Ingresar email" style="text;html=1;strokeColor=none;fillColor=none;align=center;verticalAlign=middle;whiteSpace=wrap;rounded=0;" vertex="1" parent="1">
          <mxGeometry x="150" y="240" width="110" height="50" as="geometry" />
        </mxCell>
        <mxCell id="ffrSz9LYrHrioLqBihOs-27" value="" style="endArrow=block;endFill=1;endSize=12;html=1;rounded=0;exitX=1;exitY=0.03;exitDx=0;exitDy=0;exitPerimeter=0;" edge="1" parent="1">
          <mxGeometry width="160" relative="1" as="geometry">
            <mxPoint x="120" y="340" as="sourcePoint" />
            <mxPoint x="305" y="340.1" as="targetPoint" />
          </mxGeometry>
        </mxCell>
        <mxCell id="ffrSz9LYrHrioLqBihOs-28" value="5- Ingresar codigo articulo" style="text;html=1;strokeColor=none;fillColor=none;align=center;verticalAlign=middle;whiteSpace=wrap;rounded=0;" vertex="1" parent="1">
          <mxGeometry x="150" y="290" width="110" height="50" as="geometry" />
        </mxCell>
        <mxCell id="ffrSz9LYrHrioLqBihOs-30" value="" style="endArrow=block;endFill=1;endSize=12;html=1;rounded=0;" edge="1" parent="1">
          <mxGeometry width="160" relative="1" as="geometry">
            <mxPoint x="317.5" y="620" as="sourcePoint" />
            <mxPoint x="502.5" y="620" as="targetPoint" />
          </mxGeometry>
        </mxCell>
        <mxCell id="ffrSz9LYrHrioLqBihOs-31" value="10- Validar cliente" style="text;html=1;strokeColor=none;fillColor=none;align=center;verticalAlign=middle;whiteSpace=wrap;rounded=0;" vertex="1" parent="1">
          <mxGeometry x="372.5" y="570" width="70" height="50" as="geometry" />
        </mxCell>
        <mxCell id="ffrSz9LYrHrioLqBihOs-32" value="" style="endArrow=none;dashed=1;endFill=0;endSize=12;html=1;rounded=0;startArrow=block;startFill=0;" edge="1" parent="1">
          <mxGeometry width="160" relative="1" as="geometry">
            <mxPoint x="320" y="704.5" as="sourcePoint" />
            <mxPoint x="505" y="705" as="targetPoint" />
          </mxGeometry>
        </mxCell>
        <mxCell id="ffrSz9LYrHrioLqBihOs-33" value="11- Articulo no existe" style="text;html=1;strokeColor=none;fillColor=none;align=center;verticalAlign=middle;whiteSpace=wrap;rounded=0;" vertex="1" parent="1">
          <mxGeometry x="380" y="650" width="70" height="50" as="geometry" />
        </mxCell>
        <mxCell id="ffrSz9LYrHrioLqBihOs-34" value="" style="endArrow=block;endFill=1;endSize=12;html=1;rounded=0;" edge="1" parent="1">
          <mxGeometry width="160" relative="1" as="geometry">
            <mxPoint x="125" y="734.5" as="sourcePoint" />
            <mxPoint x="310" y="734.5" as="targetPoint" />
          </mxGeometry>
        </mxCell>
        <mxCell id="ffrSz9LYrHrioLqBihOs-35" value="12- Volver a creacion de ariticulo" style="text;html=1;strokeColor=none;fillColor=none;align=center;verticalAlign=middle;whiteSpace=wrap;rounded=0;" vertex="1" parent="1">
          <mxGeometry x="180" y="684.5" width="70" height="50" as="geometry" />
        </mxCell>
        <mxCell id="ffrSz9LYrHrioLqBihOs-36" value="" style="endArrow=none;dashed=1;endFill=0;endSize=12;html=1;rounded=0;startArrow=block;startFill=0;" edge="1" parent="1">
          <mxGeometry width="160" relative="1" as="geometry">
            <mxPoint x="320" y="804.5" as="sourcePoint" />
            <mxPoint x="505" y="805" as="targetPoint" />
          </mxGeometry>
        </mxCell>
        <mxCell id="ffrSz9LYrHrioLqBihOs-37" value="9- Cliente existe" style="text;html=1;strokeColor=none;fillColor=none;align=center;verticalAlign=middle;whiteSpace=wrap;rounded=0;" vertex="1" parent="1">
          <mxGeometry x="380" y="760" width="70" height="50" as="geometry" />
        </mxCell>
      </root>
    </mxGraphModel>
  </diagram>
  <diagram id="h03H8S564miGLhGxN71_" name="Página-6">
    <mxGraphModel dx="868" dy="450" grid="1" gridSize="10" guides="1" tooltips="1" connect="1" arrows="1" fold="1" page="1" pageScale="1" pageWidth="827" pageHeight="1169" math="0" shadow="0">
      <root>
        <mxCell id="0" />
        <mxCell id="1" parent="0" />
        <mxCell id="37LZ74u9nHrq0XPDviHt-21" value="Alternativa" style="shape=umlFrame;whiteSpace=wrap;html=1;" vertex="1" parent="1">
          <mxGeometry x="30" y="445" width="740" height="165" as="geometry" />
        </mxCell>
        <mxCell id="37LZ74u9nHrq0XPDviHt-1" value="Alternativa" style="shape=umlFrame;whiteSpace=wrap;html=1;" vertex="1" parent="1">
          <mxGeometry x="30" y="170" width="580" height="140" as="geometry" />
        </mxCell>
        <mxCell id="37LZ74u9nHrq0XPDviHt-2" value="Actor" style="shape=umlActor;verticalLabelPosition=bottom;verticalAlign=top;html=1;" vertex="1" parent="1">
          <mxGeometry x="100" y="10" width="30" height="60" as="geometry" />
        </mxCell>
        <mxCell id="37LZ74u9nHrq0XPDviHt-3" value="Articulo" style="html=1;" vertex="1" parent="1">
          <mxGeometry x="260" y="25" width="100" height="30" as="geometry" />
        </mxCell>
        <mxCell id="37LZ74u9nHrq0XPDviHt-4" value="" style="html=1;points=[];perimeter=orthogonalPerimeter;" vertex="1" parent="1">
          <mxGeometry x="305" y="100" width="10" height="590" as="geometry" />
        </mxCell>
        <mxCell id="37LZ74u9nHrq0XPDviHt-5" value="" style="endArrow=block;endFill=1;endSize=12;html=1;rounded=0;startArrow=none;startFill=0;" edge="1" parent="1" source="37LZ74u9nHrq0XPDviHt-6">
          <mxGeometry width="160" relative="1" as="geometry">
            <mxPoint x="145" y="130" as="sourcePoint" />
            <mxPoint x="305" y="130" as="targetPoint" />
          </mxGeometry>
        </mxCell>
        <mxCell id="37LZ74u9nHrq0XPDviHt-6" value="" style="html=1;points=[];perimeter=orthogonalPerimeter;" vertex="1" parent="1">
          <mxGeometry x="110" y="100" width="10" height="600" as="geometry" />
        </mxCell>
        <mxCell id="37LZ74u9nHrq0XPDviHt-7" value="1- Numero de identificacion de cliente" style="text;html=1;strokeColor=none;fillColor=none;align=center;verticalAlign=middle;whiteSpace=wrap;rounded=0;" vertex="1" parent="1">
          <mxGeometry x="150" y="80" width="110" height="50" as="geometry" />
        </mxCell>
        <mxCell id="37LZ74u9nHrq0XPDviHt-8" value="DB" style="html=1;" vertex="1" parent="1">
          <mxGeometry x="460" y="25" width="100" height="30" as="geometry" />
        </mxCell>
        <mxCell id="37LZ74u9nHrq0XPDviHt-9" value="" style="endArrow=block;endFill=1;endSize=12;html=1;rounded=0;" edge="1" parent="1">
          <mxGeometry width="160" relative="1" as="geometry">
            <mxPoint x="317" y="152" as="sourcePoint" />
            <mxPoint x="502" y="152" as="targetPoint" />
          </mxGeometry>
        </mxCell>
        <mxCell id="37LZ74u9nHrq0XPDviHt-10" value="2- Verificar cliente" style="text;html=1;strokeColor=none;fillColor=none;align=center;verticalAlign=middle;whiteSpace=wrap;rounded=0;" vertex="1" parent="1">
          <mxGeometry x="374.5" y="102" width="70" height="50" as="geometry" />
        </mxCell>
        <mxCell id="37LZ74u9nHrq0XPDviHt-11" value="" style="html=1;points=[];perimeter=orthogonalPerimeter;" vertex="1" parent="1">
          <mxGeometry x="505" y="90" width="10" height="600" as="geometry" />
        </mxCell>
        <mxCell id="37LZ74u9nHrq0XPDviHt-12" value="" style="endArrow=none;dashed=1;endFill=0;endSize=12;html=1;rounded=0;startArrow=block;startFill=0;" edge="1" parent="1">
          <mxGeometry width="160" relative="1" as="geometry">
            <mxPoint x="315" y="214.5" as="sourcePoint" />
            <mxPoint x="500" y="215" as="targetPoint" />
          </mxGeometry>
        </mxCell>
        <mxCell id="37LZ74u9nHrq0XPDviHt-13" value="3- Cliente no existe" style="text;html=1;strokeColor=none;fillColor=none;align=center;verticalAlign=middle;whiteSpace=wrap;rounded=0;" vertex="1" parent="1">
          <mxGeometry x="375" y="170" width="70" height="50" as="geometry" />
        </mxCell>
        <mxCell id="37LZ74u9nHrq0XPDviHt-14" value="" style="line;strokeWidth=1;fillColor=none;align=left;verticalAlign=middle;spacingTop=-1;spacingLeft=3;spacingRight=3;rotatable=0;labelPosition=right;points=[];portConstraint=eastwest;strokeColor=inherit;dashed=1;" vertex="1" parent="1">
          <mxGeometry x="30" y="252" width="580" height="8" as="geometry" />
        </mxCell>
        <mxCell id="37LZ74u9nHrq0XPDviHt-15" value="" style="endArrow=none;dashed=1;endFill=0;endSize=12;html=1;rounded=0;exitX=0.5;exitY=1;exitDx=0;exitDy=0;entryX=0.6;entryY=0.002;entryDx=0;entryDy=0;entryPerimeter=0;" edge="1" parent="1" source="37LZ74u9nHrq0XPDviHt-8" target="37LZ74u9nHrq0XPDviHt-11">
          <mxGeometry width="160" relative="1" as="geometry">
            <mxPoint x="550" y="150" as="sourcePoint" />
            <mxPoint x="650" y="220" as="targetPoint" />
          </mxGeometry>
        </mxCell>
        <mxCell id="37LZ74u9nHrq0XPDviHt-16" value="" style="endArrow=none;dashed=1;endFill=0;endSize=12;html=1;rounded=0;exitX=0.5;exitY=1;exitDx=0;exitDy=0;entryX=0.4;entryY=-0.005;entryDx=0;entryDy=0;entryPerimeter=0;" edge="1" parent="1" source="37LZ74u9nHrq0XPDviHt-3" target="37LZ74u9nHrq0XPDviHt-4">
          <mxGeometry width="160" relative="1" as="geometry">
            <mxPoint x="520" y="65" as="sourcePoint" />
            <mxPoint x="521" y="100.82000000000005" as="targetPoint" />
          </mxGeometry>
        </mxCell>
        <mxCell id="37LZ74u9nHrq0XPDviHt-17" value="" style="endArrow=none;endFill=0;endSize=12;html=1;rounded=0;startArrow=block;startFill=1;" edge="1" parent="1">
          <mxGeometry width="160" relative="1" as="geometry">
            <mxPoint x="120" y="240" as="sourcePoint" />
            <mxPoint x="305" y="240" as="targetPoint" />
          </mxGeometry>
        </mxCell>
        <mxCell id="37LZ74u9nHrq0XPDviHt-18" value="4- Volver a crear cliente" style="text;html=1;strokeColor=none;fillColor=none;align=center;verticalAlign=middle;whiteSpace=wrap;rounded=0;" vertex="1" parent="1">
          <mxGeometry x="177.5" y="200" width="70" height="50" as="geometry" />
        </mxCell>
        <mxCell id="37LZ74u9nHrq0XPDviHt-19" value="" style="endArrow=none;dashed=1;endFill=0;endSize=12;html=1;rounded=0;startArrow=block;startFill=0;" edge="1" parent="1">
          <mxGeometry width="160" relative="1" as="geometry">
            <mxPoint x="317.5" y="294.5" as="sourcePoint" />
            <mxPoint x="502.5" y="295" as="targetPoint" />
          </mxGeometry>
        </mxCell>
        <mxCell id="37LZ74u9nHrq0XPDviHt-20" value="5- Cliente existe" style="text;html=1;strokeColor=none;fillColor=none;align=center;verticalAlign=middle;whiteSpace=wrap;rounded=0;" vertex="1" parent="1">
          <mxGeometry x="377.5" y="250" width="70" height="50" as="geometry" />
        </mxCell>
        <mxCell id="37LZ74u9nHrq0XPDviHt-23" value="" style="endArrow=block;endFill=1;endSize=12;html=1;rounded=0;startArrow=none;startFill=0;" edge="1" parent="1">
          <mxGeometry width="160" relative="1" as="geometry">
            <mxPoint x="120" y="360" as="sourcePoint" />
            <mxPoint x="305" y="360" as="targetPoint" />
          </mxGeometry>
        </mxCell>
        <mxCell id="37LZ74u9nHrq0XPDviHt-24" value="6- Codigo de articulo" style="text;html=1;strokeColor=none;fillColor=none;align=center;verticalAlign=middle;whiteSpace=wrap;rounded=0;" vertex="1" parent="1">
          <mxGeometry x="150" y="310" width="110" height="50" as="geometry" />
        </mxCell>
        <mxCell id="37LZ74u9nHrq0XPDviHt-25" value="" style="endArrow=block;endFill=1;endSize=12;html=1;rounded=0;" edge="1" parent="1" target="37LZ74u9nHrq0XPDviHt-28">
          <mxGeometry width="160" relative="1" as="geometry">
            <mxPoint x="317.5" y="410" as="sourcePoint" />
            <mxPoint x="502.5" y="410" as="targetPoint" />
          </mxGeometry>
        </mxCell>
        <mxCell id="37LZ74u9nHrq0XPDviHt-26" value="7- Verificar Articulo" style="text;html=1;strokeColor=none;fillColor=none;align=center;verticalAlign=middle;whiteSpace=wrap;rounded=0;" vertex="1" parent="1">
          <mxGeometry x="375" y="360" width="70" height="50" as="geometry" />
        </mxCell>
        <mxCell id="37LZ74u9nHrq0XPDviHt-27" value="Inventarios" style="html=1;" vertex="1" parent="1">
          <mxGeometry x="650" y="25" width="100" height="30" as="geometry" />
        </mxCell>
        <mxCell id="37LZ74u9nHrq0XPDviHt-28" value="" style="html=1;points=[];perimeter=orthogonalPerimeter;" vertex="1" parent="1">
          <mxGeometry x="695" y="90" width="10" height="610" as="geometry" />
        </mxCell>
        <mxCell id="37LZ74u9nHrq0XPDviHt-29" value="" style="endArrow=none;dashed=1;endFill=0;endSize=12;html=1;rounded=0;exitX=0.5;exitY=1;exitDx=0;exitDy=0;entryX=0.6;entryY=0.002;entryDx=0;entryDy=0;entryPerimeter=0;" edge="1" parent="1" target="37LZ74u9nHrq0XPDviHt-28">
          <mxGeometry width="160" relative="1" as="geometry">
            <mxPoint x="700" y="55" as="sourcePoint" />
            <mxPoint x="840" y="220" as="targetPoint" />
          </mxGeometry>
        </mxCell>
        <mxCell id="37LZ74u9nHrq0XPDviHt-30" value="" style="line;strokeWidth=1;fillColor=none;align=left;verticalAlign=middle;spacingTop=-1;spacingLeft=3;spacingRight=3;rotatable=0;labelPosition=right;points=[];portConstraint=eastwest;strokeColor=inherit;dashed=1;" vertex="1" parent="1">
          <mxGeometry x="30" y="540" width="740" height="8" as="geometry" />
        </mxCell>
        <mxCell id="37LZ74u9nHrq0XPDviHt-32" value="8- Articulo no existe" style="text;html=1;strokeColor=none;fillColor=none;align=center;verticalAlign=middle;whiteSpace=wrap;rounded=0;" vertex="1" parent="1">
          <mxGeometry x="575" y="450" width="70" height="50" as="geometry" />
        </mxCell>
        <mxCell id="37LZ74u9nHrq0XPDviHt-33" value="" style="endArrow=none;dashed=1;endFill=0;endSize=12;html=1;rounded=0;startArrow=block;startFill=0;" edge="1" parent="1">
          <mxGeometry width="160" relative="1" as="geometry">
            <mxPoint x="315" y="500" as="sourcePoint" />
            <mxPoint x="690" y="500" as="targetPoint" />
          </mxGeometry>
        </mxCell>
        <mxCell id="37LZ74u9nHrq0XPDviHt-34" value="" style="endArrow=none;endFill=0;endSize=12;html=1;rounded=0;startArrow=block;startFill=1;" edge="1" parent="1">
          <mxGeometry width="160" relative="1" as="geometry">
            <mxPoint x="120" y="530" as="sourcePoint" />
            <mxPoint x="305" y="530" as="targetPoint" />
          </mxGeometry>
        </mxCell>
        <mxCell id="37LZ74u9nHrq0XPDviHt-35" value="9- Volver a crear Articulo" style="text;html=1;strokeColor=none;fillColor=none;align=center;verticalAlign=middle;whiteSpace=wrap;rounded=0;" vertex="1" parent="1">
          <mxGeometry x="177.5" y="470" width="70" height="50" as="geometry" />
        </mxCell>
        <mxCell id="37LZ74u9nHrq0XPDviHt-36" value="10 Articulo existe" style="text;html=1;strokeColor=none;fillColor=none;align=center;verticalAlign=middle;whiteSpace=wrap;rounded=0;" vertex="1" parent="1">
          <mxGeometry x="575" y="540" width="70" height="50" as="geometry" />
        </mxCell>
        <mxCell id="37LZ74u9nHrq0XPDviHt-37" value="" style="endArrow=none;dashed=1;endFill=0;endSize=12;html=1;rounded=0;startArrow=block;startFill=0;" edge="1" parent="1">
          <mxGeometry width="160" relative="1" as="geometry">
            <mxPoint x="315" y="590" as="sourcePoint" />
            <mxPoint x="690" y="590" as="targetPoint" />
          </mxGeometry>
        </mxCell>
        <mxCell id="37LZ74u9nHrq0XPDviHt-38" value="" style="endArrow=block;endFill=1;endSize=12;html=1;rounded=0;startArrow=none;startFill=0;" edge="1" parent="1">
          <mxGeometry width="160" relative="1" as="geometry">
            <mxPoint x="120" y="660" as="sourcePoint" />
            <mxPoint x="305" y="660" as="targetPoint" />
          </mxGeometry>
        </mxCell>
        <mxCell id="37LZ74u9nHrq0XPDviHt-39" value="11- Modificar valor neto" style="text;html=1;strokeColor=none;fillColor=none;align=center;verticalAlign=middle;whiteSpace=wrap;rounded=0;" vertex="1" parent="1">
          <mxGeometry x="150" y="610" width="110" height="50" as="geometry" />
        </mxCell>
        <mxCell id="37LZ74u9nHrq0XPDviHt-40" value="" style="endArrow=none;dashed=1;endFill=0;endSize=12;html=1;rounded=0;startArrow=block;startFill=0;" edge="1" parent="1">
          <mxGeometry width="160" relative="1" as="geometry">
            <mxPoint x="315" y="674.5" as="sourcePoint" />
            <mxPoint x="690" y="675" as="targetPoint" />
          </mxGeometry>
        </mxCell>
        <mxCell id="37LZ74u9nHrq0XPDviHt-41" value="12- Valores modificados" style="text;html=1;strokeColor=none;fillColor=none;align=center;verticalAlign=middle;whiteSpace=wrap;rounded=0;" vertex="1" parent="1">
          <mxGeometry x="515" y="630" width="70" height="50" as="geometry" />
        </mxCell>
      </root>
    </mxGraphModel>
  </diagram>
  <diagram id="kmxANJxJvObX4XhI9VeD" name="Página-7">
    <mxGraphModel dx="1021" dy="529" grid="1" gridSize="10" guides="1" tooltips="1" connect="1" arrows="1" fold="1" page="1" pageScale="1" pageWidth="827" pageHeight="1169" math="0" shadow="0">
      <root>
        <mxCell id="0" />
        <mxCell id="1" parent="0" />
        <mxCell id="s86B3K4pPCW-2TLOdzEm-40" value="Alternativa" style="shape=umlFrame;whiteSpace=wrap;html=1;" vertex="1" parent="1">
          <mxGeometry x="30" y="640" width="740" height="190" as="geometry" />
        </mxCell>
        <mxCell id="s86B3K4pPCW-2TLOdzEm-1" value="Alternativa" style="shape=umlFrame;whiteSpace=wrap;html=1;" vertex="1" parent="1">
          <mxGeometry x="30" y="445" width="740" height="165" as="geometry" />
        </mxCell>
        <mxCell id="s86B3K4pPCW-2TLOdzEm-2" value="Alternativa" style="shape=umlFrame;whiteSpace=wrap;html=1;" vertex="1" parent="1">
          <mxGeometry x="30" y="170" width="580" height="140" as="geometry" />
        </mxCell>
        <mxCell id="s86B3K4pPCW-2TLOdzEm-3" value="Actor" style="shape=umlActor;verticalLabelPosition=bottom;verticalAlign=top;html=1;" vertex="1" parent="1">
          <mxGeometry x="100" y="10" width="30" height="60" as="geometry" />
        </mxCell>
        <mxCell id="s86B3K4pPCW-2TLOdzEm-4" value="Articulo" style="html=1;" vertex="1" parent="1">
          <mxGeometry x="260" y="25" width="100" height="30" as="geometry" />
        </mxCell>
        <mxCell id="s86B3K4pPCW-2TLOdzEm-5" value="" style="html=1;points=[];perimeter=orthogonalPerimeter;" vertex="1" parent="1">
          <mxGeometry x="305" y="100" width="10" height="750" as="geometry" />
        </mxCell>
        <mxCell id="s86B3K4pPCW-2TLOdzEm-6" value="" style="endArrow=block;endFill=1;endSize=12;html=1;rounded=0;startArrow=none;startFill=0;" edge="1" parent="1" source="s86B3K4pPCW-2TLOdzEm-7">
          <mxGeometry width="160" relative="1" as="geometry">
            <mxPoint x="145" y="130" as="sourcePoint" />
            <mxPoint x="305" y="130" as="targetPoint" />
          </mxGeometry>
        </mxCell>
        <mxCell id="s86B3K4pPCW-2TLOdzEm-7" value="" style="html=1;points=[];perimeter=orthogonalPerimeter;" vertex="1" parent="1">
          <mxGeometry x="110" y="100" width="10" height="750" as="geometry" />
        </mxCell>
        <mxCell id="s86B3K4pPCW-2TLOdzEm-8" value="1- Numero de identificacion de cliente" style="text;html=1;strokeColor=none;fillColor=none;align=center;verticalAlign=middle;whiteSpace=wrap;rounded=0;" vertex="1" parent="1">
          <mxGeometry x="150" y="80" width="110" height="50" as="geometry" />
        </mxCell>
        <mxCell id="s86B3K4pPCW-2TLOdzEm-9" value="DB" style="html=1;" vertex="1" parent="1">
          <mxGeometry x="460" y="25" width="100" height="30" as="geometry" />
        </mxCell>
        <mxCell id="s86B3K4pPCW-2TLOdzEm-10" value="" style="endArrow=block;endFill=1;endSize=12;html=1;rounded=0;" edge="1" parent="1">
          <mxGeometry width="160" relative="1" as="geometry">
            <mxPoint x="317" y="152" as="sourcePoint" />
            <mxPoint x="502" y="152" as="targetPoint" />
          </mxGeometry>
        </mxCell>
        <mxCell id="s86B3K4pPCW-2TLOdzEm-11" value="2- Verificar cliente" style="text;html=1;strokeColor=none;fillColor=none;align=center;verticalAlign=middle;whiteSpace=wrap;rounded=0;" vertex="1" parent="1">
          <mxGeometry x="374.5" y="102" width="70" height="50" as="geometry" />
        </mxCell>
        <mxCell id="s86B3K4pPCW-2TLOdzEm-12" value="" style="html=1;points=[];perimeter=orthogonalPerimeter;" vertex="1" parent="1">
          <mxGeometry x="505" y="90" width="10" height="760" as="geometry" />
        </mxCell>
        <mxCell id="s86B3K4pPCW-2TLOdzEm-13" value="" style="endArrow=none;dashed=1;endFill=0;endSize=12;html=1;rounded=0;startArrow=block;startFill=0;" edge="1" parent="1">
          <mxGeometry width="160" relative="1" as="geometry">
            <mxPoint x="315" y="214.5" as="sourcePoint" />
            <mxPoint x="500" y="215" as="targetPoint" />
          </mxGeometry>
        </mxCell>
        <mxCell id="s86B3K4pPCW-2TLOdzEm-14" value="3- Cliente no existe" style="text;html=1;strokeColor=none;fillColor=none;align=center;verticalAlign=middle;whiteSpace=wrap;rounded=0;" vertex="1" parent="1">
          <mxGeometry x="375" y="170" width="70" height="50" as="geometry" />
        </mxCell>
        <mxCell id="s86B3K4pPCW-2TLOdzEm-15" value="" style="line;strokeWidth=1;fillColor=none;align=left;verticalAlign=middle;spacingTop=-1;spacingLeft=3;spacingRight=3;rotatable=0;labelPosition=right;points=[];portConstraint=eastwest;strokeColor=inherit;dashed=1;" vertex="1" parent="1">
          <mxGeometry x="30" y="252" width="580" height="8" as="geometry" />
        </mxCell>
        <mxCell id="s86B3K4pPCW-2TLOdzEm-16" value="" style="endArrow=none;dashed=1;endFill=0;endSize=12;html=1;rounded=0;exitX=0.5;exitY=1;exitDx=0;exitDy=0;entryX=0.6;entryY=0.002;entryDx=0;entryDy=0;entryPerimeter=0;" edge="1" parent="1" source="s86B3K4pPCW-2TLOdzEm-9" target="s86B3K4pPCW-2TLOdzEm-12">
          <mxGeometry width="160" relative="1" as="geometry">
            <mxPoint x="550" y="150" as="sourcePoint" />
            <mxPoint x="650" y="220" as="targetPoint" />
          </mxGeometry>
        </mxCell>
        <mxCell id="s86B3K4pPCW-2TLOdzEm-17" value="" style="endArrow=none;dashed=1;endFill=0;endSize=12;html=1;rounded=0;exitX=0.5;exitY=1;exitDx=0;exitDy=0;entryX=0.4;entryY=-0.005;entryDx=0;entryDy=0;entryPerimeter=0;" edge="1" parent="1" source="s86B3K4pPCW-2TLOdzEm-4" target="s86B3K4pPCW-2TLOdzEm-5">
          <mxGeometry width="160" relative="1" as="geometry">
            <mxPoint x="520" y="65" as="sourcePoint" />
            <mxPoint x="521" y="100.82000000000005" as="targetPoint" />
          </mxGeometry>
        </mxCell>
        <mxCell id="s86B3K4pPCW-2TLOdzEm-18" value="" style="endArrow=none;endFill=0;endSize=12;html=1;rounded=0;startArrow=block;startFill=1;" edge="1" parent="1">
          <mxGeometry width="160" relative="1" as="geometry">
            <mxPoint x="120" y="240" as="sourcePoint" />
            <mxPoint x="305" y="240" as="targetPoint" />
          </mxGeometry>
        </mxCell>
        <mxCell id="s86B3K4pPCW-2TLOdzEm-19" value="4- Volver a crear cliente" style="text;html=1;strokeColor=none;fillColor=none;align=center;verticalAlign=middle;whiteSpace=wrap;rounded=0;" vertex="1" parent="1">
          <mxGeometry x="177.5" y="200" width="70" height="50" as="geometry" />
        </mxCell>
        <mxCell id="s86B3K4pPCW-2TLOdzEm-20" value="" style="endArrow=none;dashed=1;endFill=0;endSize=12;html=1;rounded=0;startArrow=block;startFill=0;" edge="1" parent="1">
          <mxGeometry width="160" relative="1" as="geometry">
            <mxPoint x="317.5" y="294.5" as="sourcePoint" />
            <mxPoint x="502.5" y="295" as="targetPoint" />
          </mxGeometry>
        </mxCell>
        <mxCell id="s86B3K4pPCW-2TLOdzEm-21" value="5- Cliente existe" style="text;html=1;strokeColor=none;fillColor=none;align=center;verticalAlign=middle;whiteSpace=wrap;rounded=0;" vertex="1" parent="1">
          <mxGeometry x="377.5" y="250" width="70" height="50" as="geometry" />
        </mxCell>
        <mxCell id="s86B3K4pPCW-2TLOdzEm-22" value="" style="endArrow=block;endFill=1;endSize=12;html=1;rounded=0;startArrow=none;startFill=0;" edge="1" parent="1">
          <mxGeometry width="160" relative="1" as="geometry">
            <mxPoint x="120" y="360" as="sourcePoint" />
            <mxPoint x="305" y="360" as="targetPoint" />
          </mxGeometry>
        </mxCell>
        <mxCell id="s86B3K4pPCW-2TLOdzEm-23" value="6- Codigo de articulo" style="text;html=1;strokeColor=none;fillColor=none;align=center;verticalAlign=middle;whiteSpace=wrap;rounded=0;" vertex="1" parent="1">
          <mxGeometry x="150" y="310" width="110" height="50" as="geometry" />
        </mxCell>
        <mxCell id="s86B3K4pPCW-2TLOdzEm-24" value="" style="endArrow=block;endFill=1;endSize=12;html=1;rounded=0;" edge="1" parent="1" target="s86B3K4pPCW-2TLOdzEm-27">
          <mxGeometry width="160" relative="1" as="geometry">
            <mxPoint x="317.5" y="410" as="sourcePoint" />
            <mxPoint x="502.5" y="410" as="targetPoint" />
          </mxGeometry>
        </mxCell>
        <mxCell id="s86B3K4pPCW-2TLOdzEm-25" value="7- Verificar Articulo" style="text;html=1;strokeColor=none;fillColor=none;align=center;verticalAlign=middle;whiteSpace=wrap;rounded=0;" vertex="1" parent="1">
          <mxGeometry x="375" y="360" width="70" height="50" as="geometry" />
        </mxCell>
        <mxCell id="s86B3K4pPCW-2TLOdzEm-26" value="Inventarios" style="html=1;" vertex="1" parent="1">
          <mxGeometry x="650" y="25" width="100" height="30" as="geometry" />
        </mxCell>
        <mxCell id="s86B3K4pPCW-2TLOdzEm-27" value="" style="html=1;points=[];perimeter=orthogonalPerimeter;" vertex="1" parent="1">
          <mxGeometry x="695" y="90" width="10" height="760" as="geometry" />
        </mxCell>
        <mxCell id="s86B3K4pPCW-2TLOdzEm-28" value="" style="endArrow=none;dashed=1;endFill=0;endSize=12;html=1;rounded=0;exitX=0.5;exitY=1;exitDx=0;exitDy=0;entryX=0.6;entryY=0.002;entryDx=0;entryDy=0;entryPerimeter=0;" edge="1" parent="1" target="s86B3K4pPCW-2TLOdzEm-27">
          <mxGeometry width="160" relative="1" as="geometry">
            <mxPoint x="700" y="55" as="sourcePoint" />
            <mxPoint x="840" y="220" as="targetPoint" />
          </mxGeometry>
        </mxCell>
        <mxCell id="s86B3K4pPCW-2TLOdzEm-29" value="" style="line;strokeWidth=1;fillColor=none;align=left;verticalAlign=middle;spacingTop=-1;spacingLeft=3;spacingRight=3;rotatable=0;labelPosition=right;points=[];portConstraint=eastwest;strokeColor=inherit;dashed=1;" vertex="1" parent="1">
          <mxGeometry x="30" y="540" width="740" height="8" as="geometry" />
        </mxCell>
        <mxCell id="s86B3K4pPCW-2TLOdzEm-30" value="8- Articulo no existe" style="text;html=1;strokeColor=none;fillColor=none;align=center;verticalAlign=middle;whiteSpace=wrap;rounded=0;" vertex="1" parent="1">
          <mxGeometry x="575" y="450" width="70" height="50" as="geometry" />
        </mxCell>
        <mxCell id="s86B3K4pPCW-2TLOdzEm-31" value="" style="endArrow=none;dashed=1;endFill=0;endSize=12;html=1;rounded=0;startArrow=block;startFill=0;" edge="1" parent="1">
          <mxGeometry width="160" relative="1" as="geometry">
            <mxPoint x="315" y="500" as="sourcePoint" />
            <mxPoint x="690" y="500" as="targetPoint" />
          </mxGeometry>
        </mxCell>
        <mxCell id="s86B3K4pPCW-2TLOdzEm-32" value="" style="endArrow=none;endFill=0;endSize=12;html=1;rounded=0;startArrow=block;startFill=1;" edge="1" parent="1">
          <mxGeometry width="160" relative="1" as="geometry">
            <mxPoint x="120" y="530" as="sourcePoint" />
            <mxPoint x="305" y="530" as="targetPoint" />
          </mxGeometry>
        </mxCell>
        <mxCell id="s86B3K4pPCW-2TLOdzEm-33" value="9- Volver a crear Articulo" style="text;html=1;strokeColor=none;fillColor=none;align=center;verticalAlign=middle;whiteSpace=wrap;rounded=0;" vertex="1" parent="1">
          <mxGeometry x="177.5" y="470" width="70" height="50" as="geometry" />
        </mxCell>
        <mxCell id="s86B3K4pPCW-2TLOdzEm-34" value="10 Articulo existe" style="text;html=1;strokeColor=none;fillColor=none;align=center;verticalAlign=middle;whiteSpace=wrap;rounded=0;" vertex="1" parent="1">
          <mxGeometry x="575" y="540" width="70" height="50" as="geometry" />
        </mxCell>
        <mxCell id="s86B3K4pPCW-2TLOdzEm-35" value="" style="endArrow=none;dashed=1;endFill=0;endSize=12;html=1;rounded=0;startArrow=block;startFill=0;" edge="1" parent="1">
          <mxGeometry width="160" relative="1" as="geometry">
            <mxPoint x="315" y="590" as="sourcePoint" />
            <mxPoint x="690" y="590" as="targetPoint" />
          </mxGeometry>
        </mxCell>
        <mxCell id="s86B3K4pPCW-2TLOdzEm-36" value="" style="endArrow=block;endFill=1;endSize=12;html=1;rounded=0;startArrow=none;startFill=0;" edge="1" parent="1">
          <mxGeometry width="160" relative="1" as="geometry">
            <mxPoint x="120" y="690" as="sourcePoint" />
            <mxPoint x="305" y="690" as="targetPoint" />
          </mxGeometry>
        </mxCell>
        <mxCell id="s86B3K4pPCW-2TLOdzEm-37" value="11- Facturar&amp;nbsp;" style="text;html=1;strokeColor=none;fillColor=none;align=center;verticalAlign=middle;whiteSpace=wrap;rounded=0;" vertex="1" parent="1">
          <mxGeometry x="150" y="650" width="110" height="50" as="geometry" />
        </mxCell>
        <mxCell id="s86B3K4pPCW-2TLOdzEm-38" value="" style="endArrow=none;dashed=1;endFill=0;endSize=12;html=1;rounded=0;startArrow=block;startFill=0;" edge="1" parent="1">
          <mxGeometry width="160" relative="1" as="geometry">
            <mxPoint x="315" y="714.5" as="sourcePoint" />
            <mxPoint x="690" y="715" as="targetPoint" />
          </mxGeometry>
        </mxCell>
        <mxCell id="s86B3K4pPCW-2TLOdzEm-39" value="12- Facturado" style="text;html=1;strokeColor=none;fillColor=none;align=center;verticalAlign=middle;whiteSpace=wrap;rounded=0;" vertex="1" parent="1">
          <mxGeometry x="515" y="670" width="95" height="50" as="geometry" />
        </mxCell>
        <mxCell id="s86B3K4pPCW-2TLOdzEm-41" value="" style="line;strokeWidth=1;fillColor=none;align=left;verticalAlign=middle;spacingTop=-1;spacingLeft=3;spacingRight=3;rotatable=0;labelPosition=right;points=[];portConstraint=eastwest;strokeColor=inherit;dashed=1;" vertex="1" parent="1">
          <mxGeometry x="30" y="730" width="740" height="8" as="geometry" />
        </mxCell>
        <mxCell id="s86B3K4pPCW-2TLOdzEm-42" value="" style="endArrow=block;endFill=1;endSize=12;html=1;rounded=0;startArrow=none;startFill=0;" edge="1" parent="1">
          <mxGeometry width="160" relative="1" as="geometry">
            <mxPoint x="124.5" y="774.9999999999998" as="sourcePoint" />
            <mxPoint x="309.5" y="774.9999999999998" as="targetPoint" />
          </mxGeometry>
        </mxCell>
        <mxCell id="s86B3K4pPCW-2TLOdzEm-43" value="13- Cancelar" style="text;html=1;strokeColor=none;fillColor=none;align=center;verticalAlign=middle;whiteSpace=wrap;rounded=0;" vertex="1" parent="1">
          <mxGeometry x="154.5" y="735" width="110" height="50" as="geometry" />
        </mxCell>
        <mxCell id="s86B3K4pPCW-2TLOdzEm-44" value="" style="endArrow=none;dashed=1;endFill=0;endSize=12;html=1;rounded=0;startArrow=block;startFill=0;" edge="1" parent="1">
          <mxGeometry width="160" relative="1" as="geometry">
            <mxPoint x="319.5" y="799.5" as="sourcePoint" />
            <mxPoint x="694.5" y="799.9999999999998" as="targetPoint" />
          </mxGeometry>
        </mxCell>
        <mxCell id="s86B3K4pPCW-2TLOdzEm-45" value="14- Proceso cancelado" style="text;html=1;strokeColor=none;fillColor=none;align=center;verticalAlign=middle;whiteSpace=wrap;rounded=0;" vertex="1" parent="1">
          <mxGeometry x="519.5" y="755" width="95" height="50" as="geometry" />
        </mxCell>
      </root>
    </mxGraphModel>
  </diagram>
  <diagram id="zwOmxVySuYSXuLMquDts" name="Página-8">
    <mxGraphModel dx="868" dy="450" grid="1" gridSize="10" guides="1" tooltips="1" connect="1" arrows="1" fold="1" page="1" pageScale="1" pageWidth="827" pageHeight="1169" math="0" shadow="0">
      <root>
        <mxCell id="0" />
        <mxCell id="1" parent="0" />
        <mxCell id="6XPQSdN5OyKjV2RgDlp6-1" value="Alternativa" style="shape=umlFrame;whiteSpace=wrap;html=1;" vertex="1" parent="1">
          <mxGeometry x="30" y="170" width="580" height="180" as="geometry" />
        </mxCell>
        <mxCell id="6XPQSdN5OyKjV2RgDlp6-2" value="Actor" style="shape=umlActor;verticalLabelPosition=bottom;verticalAlign=top;html=1;" vertex="1" parent="1">
          <mxGeometry x="100" y="10" width="30" height="60" as="geometry" />
        </mxCell>
        <mxCell id="6XPQSdN5OyKjV2RgDlp6-3" value="Articulo" style="html=1;" vertex="1" parent="1">
          <mxGeometry x="260" y="25" width="100" height="30" as="geometry" />
        </mxCell>
        <mxCell id="6XPQSdN5OyKjV2RgDlp6-4" value="" style="html=1;points=[];perimeter=orthogonalPerimeter;" vertex="1" parent="1">
          <mxGeometry x="305" y="100" width="10" height="260" as="geometry" />
        </mxCell>
        <mxCell id="6XPQSdN5OyKjV2RgDlp6-5" value="" style="endArrow=none;endFill=0;endSize=12;html=1;rounded=0;startArrow=block;startFill=1;" edge="1" parent="1" source="6XPQSdN5OyKjV2RgDlp6-6">
          <mxGeometry width="160" relative="1" as="geometry">
            <mxPoint x="145" y="130" as="sourcePoint" />
            <mxPoint x="305" y="130" as="targetPoint" />
          </mxGeometry>
        </mxCell>
        <mxCell id="6XPQSdN5OyKjV2RgDlp6-6" value="" style="html=1;points=[];perimeter=orthogonalPerimeter;" vertex="1" parent="1">
          <mxGeometry x="110" y="100" width="10" height="260" as="geometry" />
        </mxCell>
        <mxCell id="6XPQSdN5OyKjV2RgDlp6-7" value="1- El articulo va a entrar en amnistia" style="text;html=1;strokeColor=none;fillColor=none;align=center;verticalAlign=middle;whiteSpace=wrap;rounded=0;" vertex="1" parent="1">
          <mxGeometry x="150" y="80" width="110" height="50" as="geometry" />
        </mxCell>
        <mxCell id="6XPQSdN5OyKjV2RgDlp6-8" value="Inventarios" style="html=1;" vertex="1" parent="1">
          <mxGeometry x="460" y="25" width="100" height="30" as="geometry" />
        </mxCell>
        <mxCell id="6XPQSdN5OyKjV2RgDlp6-9" value="" style="endArrow=block;endFill=1;endSize=12;html=1;rounded=0;" edge="1" parent="1">
          <mxGeometry width="160" relative="1" as="geometry">
            <mxPoint x="120" y="220" as="sourcePoint" />
            <mxPoint x="305" y="220" as="targetPoint" />
          </mxGeometry>
        </mxCell>
        <mxCell id="6XPQSdN5OyKjV2RgDlp6-10" value="2- NO" style="text;html=1;strokeColor=none;fillColor=none;align=center;verticalAlign=middle;whiteSpace=wrap;rounded=0;" vertex="1" parent="1">
          <mxGeometry x="177.5" y="170" width="70" height="50" as="geometry" />
        </mxCell>
        <mxCell id="6XPQSdN5OyKjV2RgDlp6-11" value="" style="html=1;points=[];perimeter=orthogonalPerimeter;" vertex="1" parent="1">
          <mxGeometry x="505" y="90" width="10" height="270" as="geometry" />
        </mxCell>
        <mxCell id="6XPQSdN5OyKjV2RgDlp6-12" value="" style="endArrow=block;dashed=1;endFill=0;endSize=12;html=1;rounded=0;startArrow=none;startFill=0;" edge="1" parent="1">
          <mxGeometry width="160" relative="1" as="geometry">
            <mxPoint x="320" y="334.5" as="sourcePoint" />
            <mxPoint x="505" y="335" as="targetPoint" />
          </mxGeometry>
        </mxCell>
        <mxCell id="6XPQSdN5OyKjV2RgDlp6-13" value="5- Articulo en amnistia" style="text;html=1;strokeColor=none;fillColor=none;align=center;verticalAlign=middle;whiteSpace=wrap;rounded=0;" vertex="1" parent="1">
          <mxGeometry x="380" y="290" width="70" height="50" as="geometry" />
        </mxCell>
        <mxCell id="6XPQSdN5OyKjV2RgDlp6-14" value="" style="line;strokeWidth=1;fillColor=none;align=left;verticalAlign=middle;spacingTop=-1;spacingLeft=3;spacingRight=3;rotatable=0;labelPosition=right;points=[];portConstraint=eastwest;strokeColor=inherit;dashed=1;" vertex="1" parent="1">
          <mxGeometry x="30" y="260" width="580" height="8" as="geometry" />
        </mxCell>
        <mxCell id="6XPQSdN5OyKjV2RgDlp6-15" value="" style="endArrow=none;dashed=1;endFill=0;endSize=12;html=1;rounded=0;exitX=0.5;exitY=1;exitDx=0;exitDy=0;entryX=0.6;entryY=0.002;entryDx=0;entryDy=0;entryPerimeter=0;" edge="1" parent="1" source="6XPQSdN5OyKjV2RgDlp6-8" target="6XPQSdN5OyKjV2RgDlp6-11">
          <mxGeometry width="160" relative="1" as="geometry">
            <mxPoint x="550" y="150" as="sourcePoint" />
            <mxPoint x="650" y="220" as="targetPoint" />
          </mxGeometry>
        </mxCell>
        <mxCell id="6XPQSdN5OyKjV2RgDlp6-16" value="" style="endArrow=none;dashed=1;endFill=0;endSize=12;html=1;rounded=0;exitX=0.5;exitY=1;exitDx=0;exitDy=0;entryX=0.4;entryY=-0.005;entryDx=0;entryDy=0;entryPerimeter=0;" edge="1" parent="1" source="6XPQSdN5OyKjV2RgDlp6-3" target="6XPQSdN5OyKjV2RgDlp6-4">
          <mxGeometry width="160" relative="1" as="geometry">
            <mxPoint x="520" y="65" as="sourcePoint" />
            <mxPoint x="521" y="100.82000000000005" as="targetPoint" />
          </mxGeometry>
        </mxCell>
        <mxCell id="6XPQSdN5OyKjV2RgDlp6-17" value="" style="endArrow=block;endFill=1;endSize=12;html=1;rounded=0;" edge="1" parent="1">
          <mxGeometry width="160" relative="1" as="geometry">
            <mxPoint x="120" y="310" as="sourcePoint" />
            <mxPoint x="305" y="310" as="targetPoint" />
          </mxGeometry>
        </mxCell>
        <mxCell id="6XPQSdN5OyKjV2RgDlp6-18" value="4- SI" style="text;html=1;strokeColor=none;fillColor=none;align=center;verticalAlign=middle;whiteSpace=wrap;rounded=0;" vertex="1" parent="1">
          <mxGeometry x="177.5" y="260" width="70" height="50" as="geometry" />
        </mxCell>
      </root>
    </mxGraphModel>
  </diagram>
</mxfile>
